<svg xmlns="http://www.w3.org/2000/svg" width="87" height="87" viewBox="0 0 87 87">
  <path id="Order_Our_Services" data-name="Order Our Services" d="M1084.714,4576.815l-27.857-10.724a2.793,2.793,0,0,1-1.79-2.607V4547h5.579v14.566l22.279,8.576v-28.868l-4.667,6.241a2.81,2.81,0,0,1-3.373.875l-28.254-12.683a2.824,2.824,0,0,1-.916-4.437l10.084-11.031a2.78,2.78,0,0,1,1.277-.794h0l34-9.919a2.8,2.8,0,0,1,1.635.023l30.887,9.954h0a2.786,2.786,0,0,1,1.628,1.382l6.473,12.624a2.823,2.823,0,0,1-1.586,3.924l-32.617,11.063a2.808,2.808,0,0,1-3.029-.846l-5.962-7.1v29.945l31.451-9.107v-5.717h5.579v7.818a2.8,2.8,0,0,1-2.015,2.685l-37.03,10.722a2.772,2.772,0,0,1-.774.109A2.8,2.8,0,0,1,1084.714,4576.815Zm5.9-42.442,6.9,8.215,27.749-9.412-3.945-7.694Zm-38.172-2.186,22.692,10.186,6.141-8.211-22.644-8.745Zm14.129-9.693,19.274,7.443,27.35-7.921-21.375-6.888Zm53.391,28.7v-4.9h5.58v4.9Zm-56.8-42.636v-9.314l-2.007,1.876-3.8-4.087,6.719-6.279a2.785,2.785,0,0,1,3.819.013l6.907,6.546-3.834,4.06-2.222-2.105v9.291Zm45.419-.749-6.72-6.28,3.806-4.087,2.026,1.895V4490h5.578v9.271l2.2-2.087,3.834,4.061-6.907,6.545a2.813,2.813,0,0,1-3.819.014Z" transform="translate(-1045 -4490)" fill="#597583"/>
</svg>