<svg xmlns="http://www.w3.org/2000/svg" width="78.008" height="46.119" viewBox="0 0 78.008 46.119">
  <path id="Mastercard" d="M1108.92,7754.076a.694.694,0,0,0,.06-.051h0a22.87,22.87,0,0,0,2.372-2.469h-4.822a23.019,23.019,0,0,0,2.388,2.52,23.188,23.188,0,1,1-15.8-40.15h.15a23.433,23.433,0,0,1,15.652,5.956,23.4,23.4,0,0,1,39.007,17.085v.012a23.406,23.406,0,0,1-39.011,17.1Zm-4.123-4.894h8.283a23.927,23.927,0,0,0,1.361-2.47h-11.023A22.672,22.672,0,0,0,1104.8,7749.182Zm10.8-11.206c0,3.062,1.505,5.083,4.472,5.083a11.535,11.535,0,0,0,2.175-.339l.444-2.678a6.014,6.014,0,0,1-2.055.6c-1.766,0-2.473-1.328-2.473-2.756,0-2.9,1.519-4.489,3.209-4.489a4.464,4.464,0,0,1,2.281.7l.407-2.6a9,9,0,0,0-2.8-.6C1118.389,7730.9,1115.6,7733.358,1115.6,7737.976Zm-18.083,2.987a1.831,1.831,0,0,0,1.981,2.08,6.45,6.45,0,0,0,1.864-.323l.31-2.084c-.169,0-.419.074-.641.074-.865,0-.96-.452-.906-.791l.7-4.257h1.315l.317-2.312h-1.24l.253-1.433h-2.485C1098.928,7731.97,1097.516,7739.99,1097.516,7740.963Zm4.629-2.218c0,3.467,2.319,4.292,4.294,4.292a6.363,6.363,0,0,0,2.627-.405l.438-2.364a7.806,7.806,0,0,1-2.641.606c-2.668,0-2.2-1.965-2.2-1.965h5.052a17.322,17.322,0,0,0,.329-2.237,3.31,3.31,0,0,0-3.546-3.589C1104,7733.082,1102.147,7735.74,1102.145,7738.745Zm-19.078,1.636a2.344,2.344,0,0,0,2.4,2.645,3.235,3.235,0,0,0,2.549-1.127l-.082.935h2.189l.976-6.76c0-2.869-2.534-2.96-3.414-2.96a8.679,8.679,0,0,0-3.011.541l-.362,2.115a7.945,7.945,0,0,1,2.711-.433c.925,0,1.6.1,1.6.846a1.549,1.549,0,0,1-.084.619s-.728-.061-1.067-.061C1085.326,7736.741,1083.067,7737.647,1083.067,7740.381Zm40.3,0a2.344,2.344,0,0,0,2.4,2.645,3.254,3.254,0,0,0,2.551-1.125l-.084.938s2.191,0,2.191,0l.978-6.76c0-2.869-2.534-2.96-3.414-2.96a8.7,8.7,0,0,0-3.013.541l-.36,2.115a7.922,7.922,0,0,1,2.707-.433c.929,0,1.6.1,1.6.846a1.532,1.532,0,0,1-.084.617s-.73-.061-1.069-.061C1125.622,7736.739,1123.363,7737.645,1123.363,7740.379Zm12.361-1.369c0,2.014,1.013,3.984,3.081,3.984a3.114,3.114,0,0,0,2.316-1.028l-.107.876h2.417l1.9-11.671-2.491.006-.539,3.284a3.3,3.3,0,0,0-2.4-1.28C1137.623,7733.181,1135.724,7735.9,1135.724,7739.01Zm-44.756,1.519-.331,2.146a7.987,7.987,0,0,0,2.789.3c.559,0,3.761.141,3.761-3.122,0-3.046-2.962-2.444-2.96-3.673,0-.612.481-.8,1.365-.8.349,0,1.7.111,1.7.111l.314-2.166a11.71,11.71,0,0,0-2.294-.193c-1.839,0-3.7.725-3.7,3.2,0,2.81,3.112,2.528,3.112,3.712,0,.789-.87.855-1.541.855a8.089,8.089,0,0,1-2.206-.375Zm53.938.968a.69.69,0,0,0-.282.277.744.744,0,0,0-.1.372.721.721,0,0,0,.1.368.739.739,0,0,0,.279.279.755.755,0,0,0,.748,0,.738.738,0,0,0,.278-.279.738.738,0,0,0,0-.74.682.682,0,0,0-.284-.277.751.751,0,0,0-.37-.1A.767.767,0,0,0,1144.906,7741.5Zm-14.063,1.371h2.551c.726-4.062.859-7.36,2.588-6.756a9.378,9.378,0,0,1,.923-2.847,2.69,2.69,0,0,0-.477-.031c-1.114,0-1.94,1.5-1.94,1.5l.222-1.379H1132.4Zm-20.871,0h2.551c.728-4.062.859-7.36,2.586-6.756a9.311,9.311,0,0,1,.925-2.847,2.743,2.743,0,0,0-.481-.031c-1.112,0-1.938,1.5-1.938,1.5l.222-1.379h-2.314Zm-30.518-.018H1082l1.961-11.689h-3.936l-2.45,7.173-.127-7.173h-3.628l-1.988,11.689h2.4l1.513-8.814.222,8.814h1.712l3.194-8.814Zm23.039-13.229h12.91a23.968,23.968,0,0,0-1.007-2.469h-10.641C1103.074,7728.423,1102.622,7729.384,1102.494,7729.621Zm2.641-4.89h7.917a23.736,23.736,0,0,0-1.813-2.467H1106.8C1106.206,7723.06,1105.645,7723.907,1105.134,7724.731Zm40.088,25.691a.767.767,0,0,1-.28-.278.741.741,0,0,1-.1-.37.7.7,0,0,1,.1-.368.684.684,0,0,1,.284-.276.746.746,0,0,1,.37-.1.755.755,0,0,1,.368.1.688.688,0,0,1,.286.276.753.753,0,0,1,.1.368.737.737,0,0,1-.1.37.726.726,0,0,1-.281.278.761.761,0,0,1-.372.1A.782.782,0,0,1,1145.222,7750.422Zm.251-.578a.186.186,0,0,1,.1.029.656.656,0,0,1,.138.189l.07.126h.164l-.1-.158a.936.936,0,0,0-.121-.158.179.179,0,0,0-.07-.043.272.272,0,0,0,.169-.074.217.217,0,0,0,.062-.154.209.209,0,0,0-.037-.119.174.174,0,0,0-.1-.076.632.632,0,0,0-.2-.023h-.28v.8h.132v-.343Zm-.08-.109v-.24h.15a.372.372,0,0,1,.129.016.235.235,0,0,1,.057.037.118.118,0,0,1,.02.066.107.107,0,0,1-.039.088.231.231,0,0,1-.156.033Zm-.43-7.048a.625.625,0,0,1-.236-.232.649.649,0,0,1-.082-.31.637.637,0,0,1,.086-.31.555.555,0,0,1,.234-.23.651.651,0,0,1,.308-.083.613.613,0,0,1,.308.083.6.6,0,0,1,.236.23.637.637,0,0,1,.086.31.615.615,0,0,1-.318.542.6.6,0,0,1-.621,0Zm.189-.473a.163.163,0,0,1,.107.031.629.629,0,0,1,.134.187l.074.123h.16l-.1-.158a.851.851,0,0,0-.119-.158.208.208,0,0,0-.07-.041.257.257,0,0,0,.167-.074.21.21,0,0,0,.064-.152.188.188,0,0,0-.037-.119.221.221,0,0,0-.1-.076.583.583,0,0,0-.2-.025h-.282v.8h.134v-.341Zm-.074-.109v-.242h.148v0a.457.457,0,0,1,.13.016.136.136,0,0,1,.055.039.1.1,0,0,1,.021.066.116.116,0,0,1-.039.088.241.241,0,0,1-.156.035Zm-19.294-2.059c0-.674.37-1.48,2.191-1.48a1.47,1.47,0,0,1,.541.057c.047.411-.263,2.349-1.759,2.349A.9.9,0,0,1,1125.784,7740.046Zm-40.3,0c0-.674.368-1.48,2.189-1.48a1.449,1.449,0,0,1,.541.057c.049.411-.263,2.349-1.759,2.349A.9.9,0,0,1,1085.488,7740.046Zm52.885-1.346c0-1.9.863-3.157,1.957-3.157.894,0,1.354.608,1.354,2.033,0,1.293-.65,3.028-2,3.028C1138.791,7740.6,1138.373,7739.861,1138.373,7738.7Zm-33.482-1.741c0-.16.261-1.681,1.615-1.681,1.4,0,1.145,1.56,1.145,1.681Z" transform="translate(-1069.923 -7713.92)" fill="#16222f"/>
</svg>