<svg xmlns="http://www.w3.org/2000/svg" width="139.473" height="49" viewBox="0 0 139.473 49">
  <path id="Payoneer" d="M607.38,7761c-.323-.1-.783-.292-.871-.54a4.2,4.2,0,0,1-.28-1.971,35.032,35.032,0,0,1,3.627-9.53,75.44,75.44,0,0,1,11.354-16.135q3.819-4.169,7.9-8.081a56.737,56.737,0,0,1,13.72-9.8,27.355,27.355,0,0,1,7.37-2.55c.428-.082.861-.185,1.284-.278,0,0,5.331-1.019,7.655,2.957,0,0,.635.968.512,1.29a1.73,1.73,0,0,1-1.21.794,52.8,52.8,0,0,0-12.355,3.364,72.646,72.646,0,0,0-6.731,3.255c-4.786,2.554-8.668,6.243-12.46,10.029a99.527,99.527,0,0,0-11.04,12.861c-2.041,2.875-3.946,5.855-5.769,8.876a48.273,48.273,0,0,0-2.246,4.823c-.112.239-.364.636-.456.636Zm-14.057-11.375a5.13,5.13,0,0,1-2.943-4.846c-.181-4.449,1.373-8.136,5.146-10.7a12.43,12.43,0,0,1,7.892-1.946c1.437.082,2.861.423,4.295.617.58.084.656.4.563.9-.637,3.323-1.317,6.638-1.866,9.965-.294,1.772-.38,3.58-.5,5.376-.037.551-.166.758-.734.738-1.044-.035-2.1-.035-3.144,0-.538.02-.717-.181-.664-.7.078-.836.109-1.675.168-2.56a23.8,23.8,0,0,1-2.374,2.421,5.408,5.408,0,0,1-5.841.738Zm5.24-12.73a8,8,0,0,0-2.951,6.987,2.169,2.169,0,0,0,1.293,2.057,2.293,2.293,0,0,0,2.452-.5,5.69,5.69,0,0,0,1.132-1.256c1.6-2.45,1.646-5.319,2.226-8.11a5.272,5.272,0,0,0-1.414-.2A4.157,4.157,0,0,0,598.562,7736.894Zm70.6,12.865a5.9,5.9,0,0,1-4.6-5.46,10.8,10.8,0,0,1,3.775-9.941,8.892,8.892,0,0,1,8.681-1.852,5,5,0,0,1,.682,9.275,12.908,12.908,0,0,1-5.027,1.176c-1.085.064-2.183.012-3.3.012a2.976,2.976,0,0,0,2.863,3.2,10.376,10.376,0,0,0,5.033-.68c.181-.062.358-.137.542-.2a.942.942,0,0,1,.212,0c.1,1.019.218,2.045.277,3.073a.834.834,0,0,1-.417.6,14.846,14.846,0,0,1-5.62,1.18A12.407,12.407,0,0,1,669.161,7749.759Zm.715-10.444a10.2,10.2,0,0,0,4.988-.58,1.564,1.564,0,0,0,.945-1.671,1.49,1.49,0,0,0-1.282-1.25,2.957,2.957,0,0,0-.7-.082A4.227,4.227,0,0,0,669.876,7739.315Zm16.022,10.4a5.884,5.884,0,0,1-4.468-5.405,10.811,10.811,0,0,1,2.879-9.117,9.028,9.028,0,0,1,9.476-2.708,4.626,4.626,0,0,1,3.588,4.5,4.732,4.732,0,0,1-2.992,4.867,16.368,16.368,0,0,1-6.683,1.168c-.471.012-.945,0-1.445,0a2.907,2.907,0,0,0,2.83,3.142,10.5,10.5,0,0,0,4.9-.629c.265-.087.532-.189.882-.323.113,1.087.238,2.117.292,3.138a.82.82,0,0,1-.415.612,14.791,14.791,0,0,1-5.615,1.186A12.3,12.3,0,0,1,685.9,7749.718Zm.826-10.267c1.075-.07,2.092-.082,3.093-.216a7.2,7.2,0,0,0,1.969-.565,1.438,1.438,0,0,0,.878-1.632,1.455,1.455,0,0,0-1.227-1.217,2.831,2.831,0,0,0-.746-.1A4.252,4.252,0,0,0,686.724,7739.452Zm-60.092,6.042c-1.539-4.881,1.416-12.5,8.648-13.3a8.1,8.1,0,0,1,5.964,1.346,6.514,6.514,0,0,1,2.645,5.055,11.308,11.308,0,0,1-1.258,6.12,9.447,9.447,0,0,1-8.038,5.394h-.024C630.109,7750.106,627.569,7748.46,626.632,7745.494Zm8.574-9.486a3.523,3.523,0,0,0-2.051,1.447,9.082,9.082,0,0,0-1.7,5.319c0,.251-.018.518,0,.777a2.771,2.771,0,0,0,3.062,2.75,3.157,3.157,0,0,0,2.22-1.276,8.863,8.863,0,0,0,1.885-6.455,2.643,2.643,0,0,0-2.66-2.653A3.411,3.411,0,0,0,635.206,7736.008Zm20.426,13.685c-.064,0-.13-.053-.265-.115.265-1.4.541-2.809.791-4.223.384-2.164.76-4.332,1.108-6.5a4.022,4.022,0,0,0-.012-1.134,1.653,1.653,0,0,0-2.343-1.492,4.6,4.6,0,0,0-2.542,2.367,14.759,14.759,0,0,0-1.492,4.943c-.325,1.854-.662,3.722-1.034,5.57-.039.22-.3.561-.466.565-1.5.047-2.986.027-4.636.027,1.067-5.787,2.109-11.455,3.169-17.173H652.2c-.07.908-.142,1.778-.21,2.682.495-.462.923-.886,1.379-1.28a6.816,6.816,0,0,1,5.8-1.729,3.868,3.868,0,0,1,3.3,3.516,20.288,20.288,0,0,1-.59,6.122c-.464,2.444-.925,4.877-1.42,7.312-.049.21-.3.54-.467.545-.557.016-1.114.021-1.671.021C657.421,7749.714,656.526,7749.7,655.632,7749.693Zm42.011.018c.222-1.245.421-2.378.643-3.508a113.69,113.69,0,0,0,2.141-13.167c.012-.179.265-.493.415-.5,1.274-.041,2.565-.023,3.954-.023-.1,1.2-.179,2.318-.279,3.438,1.554-2.287,3.344-4.129,6.556-3.8-.316,1.6-.6,3.069-.912,4.544a.559.559,0,0,1-.393.3c-3.329.436-4.733,1.612-5.567,5.009-.578,2.363-.954,4.78-1.445,7.16-.039.193-.212.52-.331.522-.937.021-1.873.025-2.831.025ZM571.6,7749.7c.23-1.268.428-2.431.651-3.582,1.217-6.367,2.45-12.734,3.658-19.105.076-.4.195-.68.612-.744a24.2,24.2,0,0,1,9.489-.02,6.237,6.237,0,0,1,5,4.872,8.426,8.426,0,0,1-5.929,9.44,15.432,15.432,0,0,1-6.334.643c-.508-.049-.66.085-.746.563-.45,2.462-.933,4.93-1.424,7.384-.033.2-.212.516-.333.522-.99.024-1.982.028-3,.028Zm8.977-19.8a.629.629,0,0,0-.39.413c-.434,2.2-.845,4.4-1.315,6.885a27.568,27.568,0,0,0,2.855-.02,4.593,4.593,0,0,0,3.948-2.637c.89-1.881.249-3.878-1.437-4.468a5.716,5.716,0,0,0-1.95-.31A12.99,12.99,0,0,0,580.577,7729.906Zm32.867,5.94a9.5,9.5,0,0,1-.857-2.23q-.818-3.565-1.5-7.154c-.584-3.066-1.112-6.137-1.656-9.205-.078-.442-.119-.892-.156-1.336-.043-.508.251-.759.7-.6a3.106,3.106,0,0,1,1.194.734,17.308,17.308,0,0,1,4.832,10.062c.09.752.129,1.507.193,2.263a20.984,20.984,0,0,1-1.272,6.819,2.516,2.516,0,0,1-.415.648.8.8,0,0,1-.576.384C613.747,7736.232,613.581,7736.109,613.443,7735.846Z" transform="translate(-571.6 -7712)" fill="#16222f"/>
</svg>