<svg xmlns="http://www.w3.org/2000/svg" width="127.768" height="33.684" viewBox="0 0 127.768 33.684">
  <path id="Paypal" d="M801.839,7754.934l3.083-5.229s.247-.3.027-2.007c-.473-3.089-2.842-16.207-2.842-16.207a1.01,1.01,0,0,1,1.043-1.294l3.116,0a1.909,1.909,0,0,1,1.9,1.327l1.551,9.1.578.007c.485-.837,5.468-9.164,5.468-9.164a3.027,3.027,0,0,1,2.19-1.294s3.348.01,4.172,0c.623-.014.6.473.415.961a5.222,5.222,0,0,1-.508.961l-13.865,22.837a2.92,2.92,0,0,1-2.182,1.289l-3.6.006C801.629,7756.225,801.384,7755.645,801.839,7754.934Zm43.225-7.629a4.09,4.09,0,0,1-1.425-3.223,6.072,6.072,0,0,1,1-3.529,6.828,6.828,0,0,1,3-2.307,16.273,16.273,0,0,1,4.415-1.182c1.713-.245,3.144-.422,5.139-.539l.5-.308.053-.477a1.555,1.555,0,0,0-1.049-1.538,8.782,8.782,0,0,0-3.157-.436,15.885,15.885,0,0,0-3.268.424,21.411,21.411,0,0,0-2.063.6c-.294.083-.923.134-.683-.956l.426-1.7a1.993,1.993,0,0,1,1.524-1.569c.644-.134.749-.166,1.793-.313a27.19,27.19,0,0,1,4.208-.327,13.554,13.554,0,0,1,6.217,1.084,3.556,3.556,0,0,1,1.987,3.348l-.074.817-.134.878-2.546,10.681a1.759,1.759,0,0,1-1.479,1.277l-.053.018h-3.229l-.006-.012a.994.994,0,0,1-.925-1.269l-.006-.01.014-.01.119-.549-.023-.025-1.3.853-1.44.771-1.68.559a9.986,9.986,0,0,1-2.182.2A5.407,5.407,0,0,1,845.064,7747.305Zm8.906-7.274a13.191,13.191,0,0,0-2.291.5,3.571,3.571,0,0,0-1.489.973,2.6,2.6,0,0,0-.5,1.661l.679,1.265a4.148,4.148,0,0,0,1.98.37,5.05,5.05,0,0,0,1.812-.382l1.357-.685.565-.7c.208-.823.656-2.634.693-2.867l-.247-.413C856.327,7739.755,854.762,7739.936,853.97,7740.031Zm-72.124,7.27a4.142,4.142,0,0,1-1.417-3.219,6.149,6.149,0,0,1,1-3.545,6.844,6.844,0,0,1,3-2.3,16.322,16.322,0,0,1,4.413-1.182c1.732-.245,3.159-.422,5.133-.543l.5-.3.06-.479a1.557,1.557,0,0,0-1.049-1.54,8.786,8.786,0,0,0-3.165-.434,15.236,15.236,0,0,0-3.26.424,18.11,18.11,0,0,0-2.081.6c-.269.089-.913.132-.672-.956l.426-1.706a2.005,2.005,0,0,1,1.53-1.569c.642-.134.744-.166,1.785-.321a28.521,28.521,0,0,1,4.21-.317,13.517,13.517,0,0,1,6.219,1.08,3.562,3.562,0,0,1,1.978,3.358l-.06.817-.132.87-2.536,10.7a1.791,1.791,0,0,1-1.5,1.27l-.045.019h-3.233l-.012-.015a1.012,1.012,0,0,1-.93-1.27v0l.008-.023.132-.543-.019-.023-1.312.843-1.427.771-1.686.566a10.232,10.232,0,0,1-2.186.2A5.407,5.407,0,0,1,781.846,7747.3Zm8.909-7.29a12.951,12.951,0,0,0-2.293.5l-1.476.978a2.5,2.5,0,0,0-.51,1.652l.672,1.273a4.289,4.289,0,0,0,1.984.368,5.012,5.012,0,0,0,1.82-.384l1.368-.689.541-.695c.214-.819.66-2.638.709-2.871l-.241-.413C793.122,7739.741,791.552,7739.914,790.755,7740.012Zm31.271,6.739L826.92,7726a1.8,1.8,0,0,1,1.66-1.289l7.276,0a24.454,24.454,0,0,1,4.094.311,8.661,8.661,0,0,1,3.025,1.081,5.308,5.308,0,0,1,1.915,2,6.464,6.464,0,0,1,.67,3.042,7.959,7.959,0,0,1-3.539,6.731c-2.377,1.692-5.68,2.546-9.941,2.546h-1a1.8,1.8,0,0,0-1.672,1.285l-1.178,5.038a1.8,1.8,0,0,1-1.674,1.285l-3.484,0A1.009,1.009,0,0,1,822.027,7746.75Zm10.093-16.437-1.055,4.4a1.021,1.021,0,0,0,1.065,1.291H833a7.58,7.58,0,0,0,4.391-1.109,3.689,3.689,0,0,0,1.561-3.194,2.247,2.247,0,0,0-1.012-2.021,5.766,5.766,0,0,0-3.027-.656l-1.127.008h-.015A1.758,1.758,0,0,0,832.12,7730.314Zm33.058,17.711-.053-.07a.963.963,0,0,1-.874-1.205l-.006-.016.142-.592,4.356-19.288.158-.672.173-.261a1.762,1.762,0,0,1,1.495-1.03h3.116a1,1,0,0,1,1.045,1.273l.01,0-4.658,20.563-.167.248a1.761,1.761,0,0,1-1.5,1.045Zm-105.3-.066a1.009,1.009,0,0,1-1.051-1.289l4.89-20.739a1.81,1.81,0,0,1,1.672-1.292l7.266-.006a25.547,25.547,0,0,1,4.109.315,9.063,9.063,0,0,1,3.023,1.08,5.117,5.117,0,0,1,1.9,2,6.174,6.174,0,0,1,.67,3.052,7.87,7.87,0,0,1-3.554,6.722c-2.367,1.7-5.662,2.542-9.918,2.548h-1a1.773,1.773,0,0,0-1.668,1.285l-1.193,5.036a1.773,1.773,0,0,1-1.67,1.289Zm9.044-17.728-1.047,4.4a1.019,1.019,0,0,0,1.057,1.294h.853a7.452,7.452,0,0,0,4.4-1.127,3.635,3.635,0,0,0,1.567-3.187,2.221,2.221,0,0,0-1-2.019,5.69,5.69,0,0,0-3.025-.66l-1.141.008h-.007A1.755,1.755,0,0,0,768.925,7730.232Zm110.529-3.661-.269-.868v-1.756h-.391v-.465h.391v-.94h.574v.94h1.164v.465H879.76v1.508l.006.407.084.272.183.173.356.055.292-.041.218-.064h.031v.5l-.352.066-.333.027Zm6.538.21V7724.9l-.037-.4-.072-.319-.2-.189-.372-.068-.477.117-.481.3.01.162.01.175v2.108h-.565v-1.884l-.029-.407-.084-.315-.189-.19-.385-.066-.473.113-.473.286v2.46h-.562v-3.293h.564v.364l.535-.334.565-.121.59.136.362.391.623-.409.613-.123.831.334.267.921v2.139Z" transform="translate(-758.793 -7722.541)" fill="#16222f"/>
</svg>