<svg xmlns="http://www.w3.org/2000/svg" width="84.199" height="66.195" viewBox="0 0 84.199 66.195">
  <path id="Grow_Your_Socials" data-name="Grow Your Socials" d="M1361.128,4569.747c.176-1.251-.017.587.728-10.793-1.991.664-3.875,1.289-5.647,1.9a2.159,2.159,0,0,1-1.15.071,15.549,15.549,0,0,1-3.483,3.607c-5.138,3.854-22.589,6.765-24.562,7.086a2.2,2.2,0,0,1-2.333-3.119c.863-1.8,8.576-17.691,13.712-21.545a15.635,15.635,0,0,1,4.4-2.319,2.2,2.2,0,0,1,.4-1.142c1.086-1.542,2.254-3.233,3.426-4.926-11.412-2.685-9.52-2.326-10.754-2.5a2.2,2.2,0,0,1-1.487-3.43l.67-.964a22.89,22.89,0,0,1,21.987-9.664l1.809.258a57.57,57.57,0,0,1,7.887-7.572c11.978-9.318,25.172-9.921,40.128-7.253a2.2,2.2,0,0,1,1.8,2.4c-1.626,15.108-5.9,27.6-18.2,36.489a59.138,59.138,0,0,1-9.79,5.533l-.213,1.494a22.816,22.816,0,0,1-5.047,11.39,23.316,23.316,0,0,1-11.4,7.4,2.194,2.194,0,0,1-2.876-2.388Zm5.226-12.31-.588,9.341a18.273,18.273,0,0,0,10.139-12.867C1372.733,4555.194,1369.489,4556.36,1366.354,4557.437Zm-25.325-6.971c-2.852,2.139-7.5,10.371-10.44,16.04,6.276-1.217,15.5-3.358,18.35-5.495a10.914,10.914,0,0,0,2.979-3.351l-2.1-2.8-5.273,3.955a2.2,2.2,0,1,1-2.636-3.514l5.273-3.953-2.1-2.8A10.94,10.94,0,0,0,1341.03,4550.466Zm6.669-5.755,8.6,11.466c1.373-.461,2.695-.9,4.392-1.468l-10.354-13.8C1349.347,4542.333,1348.516,4543.538,1347.7,4544.711Zm21.725-26.558c-5.838,4.541-11.514,11.991-16.438,18.96l12.089,16.117c8.069-2.776,16.812-6.139,22.8-10.469a34.708,34.708,0,0,0,11.913-14.616,18.571,18.571,0,0,1-13-17.333A34.691,34.691,0,0,0,1369.423,4518.153Zm-29.44,14.313,9.334,2.223c1.953-2.765,4.027-5.614,6.2-8.354q-.893-.085-1.777-.084A18.253,18.253,0,0,0,1339.983,4532.466Zm51.2-22a14.083,14.083,0,0,0,10.177,13.568,68.693,68.693,0,0,0,2.684-12.613,72.1,72.1,0,0,0-11.251-.98Q1391.976,4510.436,1391.181,4510.461Zm-28.658,32.089a2.2,2.2,0,1,1,1.76.88A2.2,2.2,0,0,1,1362.524,4542.55Zm7.069-5.265a10.979,10.979,0,1,1,8.795,4.4A10.995,10.995,0,0,1,1369.593,4537.285Zm4.834-11.864a6.589,6.589,0,1,0,3.951-1.319A6.6,6.6,0,0,0,1374.427,4525.421Z" transform="translate(-1324.466 -4506.056)" fill="#597583"/>
</svg>