<svg xmlns="http://www.w3.org/2000/svg" width="75.998" height="76.998" viewBox="0 0 75.998 76.998">
  <path id="Create_an_account" data-name="Create an account" d="M516.423,4572.216l-5.287-1.865-.091-.034A6.189,6.189,0,0,1,507,4564.41c0-.043,0-.085.005-.128.445-12.673,7.318-23.5,17.946-28.254a42.075,42.075,0,0,1,7.012-2.4,18.912,18.912,0,0,1-3.95-4.605A19.109,19.109,0,0,1,544.487,4500a18.9,18.9,0,0,1,6.5,1.146,19.094,19.094,0,0,1,5.811,32.525,46.713,46.713,0,0,1,5.939,1.888A20.707,20.707,0,0,1,583,4556.27a20.379,20.379,0,0,1-6.329,14.752,21.231,21.231,0,0,1-14.593,5.969,20.337,20.337,0,0,1-5.756-.833,84.425,84.425,0,0,1-39.9-3.942Zm1.979-5.585a78.472,78.472,0,0,0,29.233,4.378,20.658,20.658,0,0,1,2.088-31.314q.779-.585,1.612-1.092a46.869,46.869,0,0,0-4.872-.489,19.049,19.049,0,0,1-4.128-.017,40.846,40.846,0,0,0-14.948,3.334c-8.562,3.834-14.1,12.687-14.446,23.1a.264.264,0,0,0,.177.229l.06.022Zm39.5,3.813a15.06,15.06,0,0,0,14.64-3.679,14.507,14.507,0,0,0,4.521-10.5,14.848,14.848,0,1,0-19.667,14.011q.115.034.227.076C557.714,4570.387,557.807,4570.416,557.9,4570.444Zm-11.808-38.251q.492-.062.977-.161a13.193,13.193,0,0,0,1.879-25.324,12.916,12.916,0,0,0-4.461-.784,13.177,13.177,0,0,0-1.736,26.255q.734-.02,1.47-.02Q545.156,4532.161,546.092,4532.193Zm15.985,44.8Zm-2.829-11.833v-5.926H553.31a2.962,2.962,0,1,1,0-5.924h5.938v-5.925a2.969,2.969,0,0,1,5.938,0v5.925h5.939a2.962,2.962,0,1,1,0,5.924h-5.939v5.926a2.969,2.969,0,0,1-5.937,0Z" transform="translate(-507 -4500)" fill="#597583"/>
</svg>