<svg xmlns="http://www.w3.org/2000/svg" width="94.645" height="28.779" viewBox="0 0 94.645 28.779">
  <path id="Visa" d="M968.237,7750.844l1.082-6.239.992.445a16.331,16.331,0,0,0,7.243,1.459c2.21,0,4.576-.856,4.6-2.722.016-1.222-.99-2.091-3.988-3.459-2.92-1.335-6.786-3.57-6.738-7.574.043-5.42,5.4-9.2,13-9.2a20.077,20.077,0,0,1,6.891,1.171l-1.041,6.043-.695-.323a14.372,14.372,0,0,0-5.757-1.066c-3.012,0-4.409,1.239-4.409,2.4-.016,1.305,1.63,2.166,4.321,3.459,4.446,1.985,6.5,4.4,6.465,7.57-.056,5.79-5.311,9.527-13.4,9.527A24.6,24.6,0,0,1,968.237,7750.844Zm41.916,1.084s-.708-3.2-.938-4.177c-1.119,0-8.967-.012-9.852-.012-.3.753-1.617,4.189-1.617,4.189h-8.078l11.422-25.551c.811-1.817,2.185-2.313,4.031-2.313h5.944l6.224,27.865Zm-8.576-9.9h6.391c-.309-1.393-1.782-8.051-1.782-8.051l-.519-2.4c-.4,1.049-1.066,2.738-1.023,2.662C1004.642,7734.24,1002.211,7740.433,1001.576,7742.032Zm-45.846,9.88,4.81-27.882h7.7l-4.813,27.882Zm-25.446-23.265c4.953,3.13,9.172,8.1,10.658,11.559l.8,2.87,7.533-19.012,8.15-.008-12.115,27.83-8.14.014Zm-7.64-4.3.1-.555H934.67c1.609.061,2.9.566,3.352,2.265l2.593,12.317C938.067,7731.931,931.924,7726.571,922.644,7724.347Z" transform="translate(-922.644 -7723.551)" fill="#16222f"/>
</svg>