<svg xmlns="http://www.w3.org/2000/svg" width="76.999" height="77.002" viewBox="0 0 76.999 77.002">
  <path id="Op_component_1" data-name="Op component 1" d="M847.75,4515.6h-6.9a24.761,24.761,0,0,0-46.749,0H787.25a8.243,8.243,0,0,0-8.25,8.237v43.932a8.244,8.244,0,0,0,8.25,8.237h60.5a8.244,8.244,0,0,0,8.25-8.237v-43.932A8.243,8.243,0,0,0,847.75,4515.6Zm0,5.491a2.748,2.748,0,0,1,2.75,2.746v3.213a8.254,8.254,0,0,0-2.75-.467h-5.665a22.971,22.971,0,0,0,.165-2.746,22.6,22.6,0,0,0-.165-2.746Zm-30.25-16.475a19.235,19.235,0,0,1,19.25,19.22,18.448,18.448,0,0,1-.192,2.746H825.282a8.248,8.248,0,0,0-7.645-5.492H817.5a2.746,2.746,0,1,1,2.75-2.746,2.75,2.75,0,0,0,5.5,0,8.238,8.238,0,0,0-5.5-7.771v-.467a2.75,2.75,0,0,0-5.5,0v.467a8.236,8.236,0,0,0,2.75,16.008H798.443a18.472,18.472,0,0,1-.193-2.746A19.235,19.235,0,0,1,817.5,4504.612Zm-30.25,16.475h5.5v5.492h-5.5a2.746,2.746,0,1,1,0-5.492Zm60.5,49.423h-60.5a2.748,2.748,0,0,1-2.75-2.746V4531.6a8.266,8.266,0,0,0,2.75.467h60.5a2.748,2.748,0,0,1,2.75,2.746v5.492h-8.25a10.983,10.983,0,1,0,0,21.966h8.25v5.491A2.748,2.748,0,0,1,847.75,4570.51Zm2.75-13.729h-8.25a5.491,5.491,0,1,1,0-10.983h8.25Z" transform="translate(-779 -4498.999)" fill="#597583"/>
</svg>