<svg xmlns="http://www.w3.org/2000/svg" width="146.264" height="38.466" viewBox="0 0 146.264 38.466">
  <path id="Webmoney" d="M467.609,7736.981a19.253,19.253,0,0,1,27.7-17.283c.4.188.8.4,1.193.628l-1.771,1.584-2.655-2.749-4.495,4.006-2.663-2.912-8.382,7.539,5.371,5.912-2.114,1.851,5.293,5.917-2.1,1.849,7.558,8.4,4.477-4.123,3.872,4.42a20.689,20.689,0,0,1-2.532,1.682,19.248,19.248,0,0,1-28.747-16.725Zm30,9.824,3.434-3.091,3.1,3.434-3.434,3.091Zm-43.461.736c1.495,0,2.416-1.184,2.943-2.809l-4.216-10.979h2.416l2.813,8.082h.132l2.494-8.084h2.355l-3.973,10.975c-1.1,3.031-2.439,4.61-4.964,4.61Zm32.451-3.858,4.578-4.117,4.123,4.577-4.578,4.115Zm-43.838-4.549c0-3.338,1.69-5.748,4.987-5.748,2.745,0,4.438,1.771,4.432,5.359v.8h-7.161c0,2.64,1.082,3.8,3.342,3.8a6.767,6.767,0,0,0,3.488-1.139v1.658a7.674,7.674,0,0,1-3.885,1.018C444.276,7744.886,442.759,7742.6,442.759,7739.134Zm2.3-1.057H450.1c-.109-2.309-1.234-3.225-2.416-3.225C446.343,7734.852,445.307,7735.886,445.06,7738.077Zm-25.679,1.057c0-3.838,2.11-5.748,5.01-5.748s5.01,1.906,5.01,5.748c0,3.751-2,5.752-5.01,5.752S419.381,7742.885,419.381,7739.134Zm2.307,0c0,3.009,1.145,4.21,2.7,4.21s2.7-1.2,2.7-4.21c0-2.964-1.209-4.214-2.7-4.214C422.943,7734.92,421.688,7736.17,421.688,7739.134Zm-43.13,0c0-3.338,1.692-5.748,4.987-5.748,2.747,0,4.438,1.771,4.436,5.359v.8h-7.159c0,2.64,1.078,3.8,3.338,3.8a6.779,6.779,0,0,0,3.492-1.139v1.658a7.671,7.671,0,0,1-3.887,1.018C380.076,7744.886,378.558,7742.6,378.558,7739.134Zm2.309-1.057h5.03c-.109-2.309-1.228-3.225-2.416-3.225C382.142,7734.852,381.106,7735.886,380.867,7738.077Zm9.114,5.731v-15.319l2.283-.547v6.254a6.669,6.669,0,0,1,2.97-.81c2.723,0,4.195,1.886,4.195,5.39,0,4.1-1.976,6.106-5.162,6.106A10.225,10.225,0,0,1,389.98,7743.808Zm2.266-7.989V7743a5.084,5.084,0,0,0,2.021.349c1.627,0,2.859-1.01,2.859-4.564,0-2.782-1.014-3.685-2.488-3.685A4.605,4.605,0,0,0,392.246,7735.819Zm22.346,8.8v-11.286h-.2l-4.481,11.286H408.51l-4.483-11.021h-.2v11.021h-1.976v-15.562h2.657l4.923,12.267h.111l4.7-12.267h2.723v15.563Zm-42.61,0-2.988-10.955h-.156l-2.9,10.955h-2.375l-3.56-15.562h2.462l2.46,11.611h.156l2.856-11.611h1.954l3.056,11.611h.156l2.242-11.611h2.571l-3.562,15.563Zm66.449,0v-7.441c0-1.732-.853-2.04-1.982-2.04a6.07,6.07,0,0,0-2.68.79v8.689h-2.281V7735a11.258,11.258,0,0,1,5.6-1.622c2.632.006,3.623,1.036,3.623,3.293v7.942Zm56.152-4.738,3.432-3.1,3.1,3.428-3.434,3.1Zm-11.239-4.115,4.582-4.121,4.123,4.574-4.582,4.121Zm18.576,1.986,2.287-2.058,2.061,2.283-2.287,2.058Zm-10.278-5.11,3.426-3.089,3.1,3.43-3.428,3.089Zm7.356-1.715,2.281-2.06,2.063,2.281-2.281,2.06Zm-18.924-2.959,4.58-4.119,4.123,4.574-4.58,4.119Zm8.4-2.229,3.436-3.089,3.093,3.432-3.436,3.089Zm7.578-1.6,2.285-2.06,2.061,2.283-2.287,2.06Z" transform="translate(-360.005 -7717.748)" fill="#16222f"/>
</svg>